<?xml version="1.0" encoding="utf-8"?><svg viewBox="0 0 634 512" xmlns="http://www.w3.org/2000/svg" xmlns:xlink="http://www.w3.org/1999/xlink"><style>:root>svg{display:none}:root>svg:target{display:block}</style><svg aria-hidden="true" data-prefix="fas" data-icon="bars" class="asvg-inline--fa afa-bars afa-w-14" viewBox="0 0 448 512" id="bars-solid" xmlns="http://www.w3.org/2000/svg"><path fill="#8168F0" d="M16 132h416c8.837 0 16-7.163 16-16V76c0-8.837-7.163-16-16-16H16C7.163 60 0 67.163 0 76v40c0 8.837 7.163 16 16 16zm0 160h416c8.837 0 16-7.163 16-16v-40c0-8.837-7.163-16-16-16H16c-8.837 0-16 7.163-16 16v40c0 8.837 7.163 16 16 16zm0 160h416c8.837 0 16-7.163 16-16v-40c0-8.837-7.163-16-16-16H16c-8.837 0-16 7.163-16 16v40c0 8.837 7.163 16 16 16z"/></svg><svg aria-hidden="true" data-prefix="fas" data-icon="bars" class="bsvg-inline--fa bfa-bars bfa-w-14" viewBox="0 0 448 512" id="bars-solid-active" xmlns="http://www.w3.org/2000/svg"><path fill="#593cda" d="M16 132h416c8.837 0 16-7.163 16-16V76c0-8.837-7.163-16-16-16H16C7.163 60 0 67.163 0 76v40c0 8.837 7.163 16 16 16zm0 160h416c8.837 0 16-7.163 16-16v-40c0-8.837-7.163-16-16-16H16c-8.837 0-16 7.163-16 16v40c0 8.837 7.163 16 16 16zm0 160h416c8.837 0 16-7.163 16-16v-40c0-8.837-7.163-16-16-16H16c-8.837 0-16 7.163-16 16v40c0 8.837 7.163 16 16 16z"/></svg><svg fill="none" viewBox="0 0 29 33" id="cart-icon" xmlns="http://www.w3.org/2000/svg"><path d="M28.812 31.915L26.304 8.031a.982.982 0 00-.977-.88h-4.714V6.076A6.083 6.083 0 0014.537 0 6.083 6.083 0 008.46 6.076v1.075H3.746a.982.982 0 00-.977.88L.261 31.915A.984.984 0 001.238 33h26.597a.982.982 0 00.977-1.085zM10.425 6.076a4.117 4.117 0 014.112-4.112 4.117 4.117 0 014.112 4.112v1.075h-8.224V6.076zm-8.096 24.96L4.63 9.116h3.83v2.164a.982.982 0 001.964 0V9.115h8.224v2.165a.982.982 0 001.964 0V9.115h3.83l2.302 21.92H2.329z" fill="#8168F0"/></svg><svg aria-hidden="true" data-prefix="fas" data-icon="chevron-down" class="dsvg-inline--fa dfa-chevron-down dfa-w-14" viewBox="0 0 448 512" id="chevron-down-solid" xmlns="http://www.w3.org/2000/svg"><path fill="#8168F0" d="M207.029 381.476L12.686 187.132c-9.373-9.373-9.373-24.569 0-33.941l22.667-22.667c9.357-9.357 24.522-9.375 33.901-.04L224 284.505l154.745-154.021c9.379-9.335 24.544-9.317 33.901.04l22.667 22.667c9.373 9.373 9.373 24.569 0 33.941L240.971 381.476c-9.373 9.372-24.569 9.372-33.942 0z"/></svg><svg aria-hidden="true" data-prefix="fas" data-icon="chevron-down" class="esvg-inline--fa efa-chevron-down efa-w-14" viewBox="0 0 448 512" id="chevron-down-solid-hover" xmlns="http://www.w3.org/2000/svg"><path fill="#593cda" d="M207.029 381.476L12.686 187.132c-9.373-9.373-9.373-24.569 0-33.941l22.667-22.667c9.357-9.357 24.522-9.375 33.901-.04L224 284.505l154.745-154.021c9.379-9.335 24.544-9.317 33.901.04l22.667 22.667c9.373 9.373 9.373 24.569 0 33.941L240.971 381.476c-9.373 9.372-24.569 9.372-33.942 0z"/></svg><svg fill="none" viewBox="0 0 21 12" id="chevron-more-down" xmlns="http://www.w3.org/2000/svg"><path d="M1.5 1.5l9 9 9-9" stroke="#8168F0" stroke-width="2"/></svg><svg fill="none" viewBox="0 0 21 12" id="chevron-more-down-hover" xmlns="http://www.w3.org/2000/svg"><path d="M1.5 1.5l9 9 9-9" stroke="#593cda" stroke-width="2"/></svg><svg version="1.2" baseProfile="tiny-ps" viewBox="0 0 21 12" id="chevron-more-up" xmlns="http://www.w3.org/2000/svg"><style>.hs0{fill:none;stroke:#8168f0;stroke-width:2}</style><path id="hLayer" class="hs0" d="M1.5 10.5l9-9 9 9"/></svg><svg version="1.2" baseProfile="tiny-ps" viewBox="0 0 21 12" id="chevron-more-up-hover" xmlns="http://www.w3.org/2000/svg"><style>.is0{fill:none;stroke:#593cda;stroke-width:2}</style><path id="iLayer" class="is0" d="M1.5 10.5l9-9 9 9"/></svg><svg aria-hidden="true" data-prefix="fas" data-icon="chevron-up" class="jsvg-inline--fa jfa-chevron-up jfa-w-14" viewBox="0 0 448 512" id="chevron-up-solid" xmlns="http://www.w3.org/2000/svg"><path fill="#8168F0" d="M240.971 130.524l194.343 194.343c9.373 9.373 9.373 24.569 0 33.941l-22.667 22.667c-9.357 9.357-24.522 9.375-33.901.04L224 227.495 69.255 381.516c-9.379 9.335-24.544 9.317-33.901-.04l-22.667-22.667c-9.373-9.373-9.373-24.569 0-33.941L207.03 130.525c9.372-9.373 24.568-9.373 33.941-.001z"/></svg><svg aria-hidden="true" data-prefix="fas" data-icon="chevron-up" class="ksvg-inline--fa kfa-chevron-up kfa-w-14" viewBox="0 0 448 512" id="chevron-up-solid-hover" xmlns="http://www.w3.org/2000/svg"><path fill="#593cda" d="M240.971 130.524l194.343 194.343c9.373 9.373 9.373 24.569 0 33.941l-22.667 22.667c-9.357 9.357-24.522 9.375-33.901.04L224 227.495 69.255 381.516c-9.379 9.335-24.544 9.317-33.901-.04l-22.667-22.667c-9.373-9.373-9.373-24.569 0-33.941L207.03 130.525c9.372-9.373 24.568-9.373 33.941-.001z"/></svg><svg fill="none" viewBox="0 0 14 9" id="chevron-white-down" xmlns="http://www.w3.org/2000/svg"><path d="M.75 1l6 6 6-6" stroke="#fff" stroke-width="2"/></svg><svg version="1.2" baseProfile="tiny-ps" viewBox="0 0 14 9" id="chevron-white-up" xmlns="http://www.w3.org/2000/svg"><style>.ms0{fill:none;stroke:#fff;stroke-width:2}</style><path id="mLayer" class="ms0" d="M1.25 8l6-6 6 6"/></svg><svg fill="none" viewBox="0 0 4 5" id="dot" xmlns="http://www.w3.org/2000/svg"><path opacity=".4" d="M2 4.054c1.09 0 2-.893 2-2.005C4 .956 3.09.054 2 .054c-1.1 0-2 .902-2 1.995C0 3.16.9 4.054 2 4.054z" fill="#000"/></svg><svg fill="none" viewBox="0 0 38 40" id="logo" xmlns="http://www.w3.org/2000/svg"><path d="M37.389 26.673L26.479 20l10.91-6.674a.83.83 0 00.274-1.142l-3.205-5.24a.83.83 0 00-1.142-.275L22.9 13.039V.83a.83.83 0 00-.83-.83h-6.142a.83.83 0 00-.83.83v12.21L4.682 6.67a.83.83 0 00-1.141.274l-3.206 5.24a.832.832 0 00.275 1.143L11.52 20 .61 26.673a.83.83 0 00-.275 1.142l3.206 5.24a.83.83 0 001.141.276l10.415-6.371v12.21c0 .458.372.83.83.83h6.143a.83.83 0 00.83-.83V26.96l10.415 6.37a.831.831 0 001.142-.274l3.206-5.24a.832.832 0 00-.275-1.143z" fill="url(#opaint0_radial_2_605)"/><defs><radialGradient id="opaint0_radial_2_605" cx="0" cy="0" r="1" gradientUnits="userSpaceOnUse" gradientTransform="matrix(.00023 21.5002 -20.1952 .00021 19 20)"><stop stop-color="#84CC9D"/><stop offset="1" stop-color="#8866EC"/><stop offset="1" stop-color="#A585FF"/></radialGradient></defs></svg><svg fill="none" viewBox="0 0 17 18" id="person" xmlns="http://www.w3.org/2000/svg"><path d="M8.287 8.842c2.279 0 4.124-2.015 4.124-4.482 0-2.43-1.845-4.36-4.124-4.36-2.27 0-4.134 1.959-4.125 4.379.01 2.458 1.846 4.463 4.125 4.463zm0-1.648c-1.3 0-2.401-1.233-2.401-2.815-.01-1.545 1.092-2.731 2.4-2.731 1.32 0 2.402 1.168 2.402 2.712 0 1.582-1.092 2.834-2.401 2.834zM2.41 17.6h11.742c1.63 0 2.411-.518 2.411-1.629 0-2.59-3.23-6.036-8.277-6.036C3.239 9.935 0 13.38 0 15.97c0 1.111.782 1.63 2.41 1.63zm-.292-1.648c-.226 0-.311-.075-.311-.245 0-1.44 2.326-4.124 6.479-4.124 4.143 0 6.47 2.684 6.47 4.124 0 .17-.085.245-.312.245H2.12z" fill="#8168F0"/></svg><svg fill="none" viewBox="0 0 17 18" id="person-hover" xmlns="http://www.w3.org/2000/svg"><path d="M8.287 8.842c2.279 0 4.124-2.015 4.124-4.482 0-2.43-1.845-4.36-4.124-4.36-2.27 0-4.134 1.959-4.125 4.379.01 2.458 1.846 4.463 4.125 4.463zm0-1.648c-1.3 0-2.401-1.233-2.401-2.815-.01-1.545 1.092-2.731 2.4-2.731 1.32 0 2.402 1.168 2.402 2.712 0 1.582-1.092 2.834-2.401 2.834zM2.41 17.6h11.742c1.63 0 2.411-.518 2.411-1.629 0-2.59-3.23-6.036-8.277-6.036C3.239 9.935 0 13.38 0 15.97c0 1.111.782 1.63 2.41 1.63zm-.292-1.648c-.226 0-.311-.075-.311-.245 0-1.44 2.326-4.124 6.479-4.124 4.143 0 6.47 2.684 6.47 4.124 0 .17-.085.245-.312.245H2.12z" fill="#593cda"/></svg><svg fill="none" viewBox="0 0 19 20" id="phone" xmlns="http://www.w3.org/2000/svg"><path d="M14.067 19.36c1.648 0 2.769-.47 3.786-1.572.066-.075.132-.16.197-.235.556-.622.83-1.272.83-1.874 0-.707-.377-1.347-1.216-1.921l-2.806-1.96c-.885-.611-1.911-.658-2.702.133l-.697.697c-.245.244-.48.263-.763.066-.508-.34-1.469-1.187-2.128-1.846-.669-.669-1.347-1.422-1.714-1.997-.198-.292-.179-.518.066-.762l.697-.697c.79-.791.744-1.818.122-2.703L5.743 1.836C5.187 1.026 4.519.649 3.813.64c-.603-.01-1.244.264-1.865.81l-.226.197C.602 2.674.12 3.776.12 5.49c0 2.778 1.61 6.055 4.746 9.172 3.117 3.098 6.356 4.699 9.2 4.699zm0-1.572c-2.401.038-5.386-1.667-8.004-4.266-2.637-2.599-4.388-5.697-4.35-8.098.018-1.008.376-1.893 1.082-2.515.076-.056.132-.103.207-.16.264-.226.547-.348.81-.348.273 0 .518.113.707.395l1.76 2.646c.226.32.236.688-.094 1.008l-.753.744c-.716.697-.65 1.516-.198 2.156.509.707 1.46 1.79 2.26 2.58.857.848 2.025 1.893 2.703 2.383.64.452 1.46.518 2.156-.198l.744-.753c.311-.33.678-.32 1.008-.104l2.599 1.733c.292.189.395.424.395.697 0 .264-.122.546-.348.82a3.646 3.646 0 00-.16.197c-.622.716-1.507 1.074-2.524 1.083z" fill="#21A038"/></svg><svg fill="none" viewBox="0 0 19 20" id="phone-hover" xmlns="http://www.w3.org/2000/svg"><path d="M14.067 19.36c1.648 0 2.769-.47 3.786-1.572.066-.075.132-.16.197-.235.556-.622.83-1.272.83-1.874 0-.707-.377-1.347-1.216-1.921l-2.806-1.96c-.885-.611-1.911-.658-2.702.133l-.697.697c-.245.244-.48.263-.763.066-.508-.34-1.469-1.187-2.128-1.846-.669-.669-1.347-1.422-1.714-1.997-.198-.292-.179-.518.066-.762l.697-.697c.79-.791.744-1.818.122-2.703L5.743 1.836C5.187 1.026 4.519.649 3.813.64c-.603-.01-1.244.264-1.865.81l-.226.197C.602 2.674.12 3.776.12 5.49c0 2.778 1.61 6.055 4.746 9.172 3.117 3.098 6.356 4.699 9.2 4.699zm0-1.572c-2.401.038-5.386-1.667-8.004-4.266-2.637-2.599-4.388-5.697-4.35-8.098.018-1.008.376-1.893 1.082-2.515.076-.056.132-.103.207-.16.264-.226.547-.348.81-.348.273 0 .518.113.707.395l1.76 2.646c.226.32.236.688-.094 1.008l-.753.744c-.716.697-.65 1.516-.198 2.156.509.707 1.46 1.79 2.26 2.58.857.848 2.025 1.893 2.703 2.383.64.452 1.46.518 2.156-.198l.744-.753c.311-.33.678-.32 1.008-.104l2.599 1.733c.292.189.395.424.395.697 0 .264-.122.546-.348.82a3.646 3.646 0 00-.16.197c-.622.716-1.507 1.074-2.524 1.083z" fill="#593cda"/></svg><svg fill="none" viewBox="0 0 24 24" id="scheme-icon-1" xmlns="http://www.w3.org/2000/svg"><path d="M20.761 3H3.24C1.453 3 0 4.545 0 6.443v10.114C0 18.455 1.453 20 3.239 20H20.76C22.547 20 24 18.455 24 16.557V6.443C24 4.545 22.547 3 20.761 3zM3.24 5.096H20.76c.7 0 1.268.604 1.268 1.347v.815H1.97v-.815c0-.743.569-1.347 1.268-1.347zM20.76 17.904H3.24c-.7 0-1.268-.604-1.268-1.347V9.354H22.03v7.203c0 .743-.569 1.347-1.268 1.347z" fill="#fff"/><path d="M5.992 12.516H4.49a.986.986 0 100 1.972h1.502a.986.986 0 000-1.972z" fill="#fff"/></svg><svg fill="none" viewBox="0 0 24 24" id="scheme-icon-2" xmlns="http://www.w3.org/2000/svg"><path d="M12 0L0 4.445V19.55l12 4.444 12-4.444V4.445L12 0zm0 8.194L8.969 7.072l8.363-3.098 3.031 1.123L12 8.194zm2.633-5.22L6.27 6.073l-2.633-.975L12 2l2.633.975zM1.875 6.445l3.563 1.32v4.629l1.874.694V8.458l3.75 1.389v11.8l-9.187-3.402V6.444zm11.063 15.204V9.847l9.187-3.403v11.8l-9.188 3.404z" fill="#fff"/></svg><svg fill="none" viewBox="0 0 14 24" id="scheme-icon-3" xmlns="http://www.w3.org/2000/svg"><path d="M6.962 5.124c1.253 0 2.27-1.036 2.27-2.24a2.273 2.273 0 00-2.27-2.28c-1.252 0-2.24 1.017-2.24 2.28 0 1.204.988 2.24 2.24 2.24zm3.212 17.94c.536 0 1.017-.396 1.017-1.055 0-.245-.066-.471-.198-.735l-2.015-4.087a6.811 6.811 0 00-.575-.96L7.17 14.475l.075-.235c.339-1.083.47-1.742.546-2.778l.207-2.91c.104-1.431-.725-2.599-2.222-2.599-1.092 0-1.883.593-2.9 1.582L1.33 9.07c-.527.518-.697.942-.744 1.6L.39 13.064c-.047.65.32 1.073.904 1.11.556.039.97-.291 1.036-.988l.217-2.618.913-.81c.17-.15.415-.065.396.189l-.17 2.354c-.084 1.14.415 1.968.98 2.674l2.015 2.534c.198.244.226.338.32.517l2.147 4.36c.254.509.631.678 1.027.678zm.442-11.122h2.28c.658 0 1.073-.386 1.073-.97s-.424-.97-1.083-.97h-2.383L8.846 8.204l-.18 2.59.707.705c.34.34.66.443 1.243.443zM1.04 23.063c.33 0 .622-.15.829-.395L4.9 19.06c.31-.376.349-.47.48-.838.076-.245.142-.48.198-.706L3.845 15.35l-.508 2.364-2.872 3.409c-.264.3-.443.565-.443.941 0 .584.443.998 1.017.998z" fill="#FAFAFA"/></svg><svg fill="none" viewBox="0 0 26 26" id="scheme-icon-4" xmlns="http://www.w3.org/2000/svg"><path d="M13 26a12.915 12.915 0 01-9.192-3.808A12.915 12.915 0 010 13c0-3.472 1.352-6.737 3.808-9.192A12.915 12.915 0 0113 0c3.472 0 6.737 1.352 9.192 3.808A12.915 12.915 0 0126 13c0 3.472-1.352 6.737-3.808 9.192A12.915 12.915 0 0113 26zm0-23.969C6.952 2.031 2.031 6.951 2.031 13c0 6.048 4.92 10.969 10.969 10.969 6.048 0 10.969-4.92 10.969-10.969 0-6.048-4.92-10.969-10.969-10.969zm4.76 13.213a1.015 1.015 0 00-1.402.312c-.012.02-1.277 1.967-3.409 1.967-2.132 0-3.396-1.948-3.409-1.967a1.016 1.016 0 00-1.713 1.09c.075.119 1.887 2.908 5.122 2.908s5.047-2.79 5.123-2.908c.3-.473.161-1.1-.312-1.402zM8.531 8.379a1.27 1.27 0 110 2.539 1.27 1.27 0 010-2.54zm7.617 1.27a1.27 1.27 0 102.54 0 1.27 1.27 0 00-2.54 0z" fill="#fff"/></svg><svg fill="none" viewBox="0 0 634 3" id="scheme-line-gray" xmlns="http://www.w3.org/2000/svg"><path fill="#DDDFE0" d="M0 0h634v3H0z"/></svg><svg fill="none" viewBox="0 0 428 3" id="scheme-line-green" xmlns="http://www.w3.org/2000/svg"><rect width="428" height="3" rx="1.5" fill="#21A038"/></svg><svg fill="none" viewBox="0 0 23 23" id="search-icon" xmlns="http://www.w3.org/2000/svg"><g clip-path="url(#zclip0_2_455)" fill="#fff"><path d="M22.041 23a.956.956 0 01-.677-.28l-6.69-6.69a.957.957 0 111.356-1.355l6.689 6.69A.957.957 0 0122.04 23z"/><path d="M9.344 18.688C4.192 18.688 0 14.495 0 9.344 0 4.192 4.192 0 9.344 0c5.152 0 9.344 4.192 9.344 9.344 0 5.152-4.192 9.344-9.344 9.344zm0-16.771c-4.095 0-7.427 3.332-7.427 7.427s3.332 7.427 7.427 7.427 7.427-3.332 7.427-7.427-3.332-7.427-7.427-7.427z"/></g><defs><clipPath id="zclip0_2_455"><path fill="#fff" d="M0 0h23v23H0z"/></clipPath></defs></svg></svg>