<svg width="14" height="24" viewBox="0 0 14 24" fill="none" xmlns="http://www.w3.org/2000/svg">
<path d="M6.96243 5.12434C8.21488 5.12434 9.2319 4.08848 9.2319 2.88313C9.2319 1.62127 8.21488 0.604248 6.96243 0.604248C5.70999 0.604248 4.72122 1.62127 4.72122 2.88313C4.72122 4.08848 5.70999 5.12434 6.96243 5.12434ZM10.1736 23.0634C10.7103 23.0634 11.1906 22.6679 11.1906 22.0088C11.1906 21.7639 11.1247 21.5379 10.9928 21.2742L8.97764 17.1873C8.79872 16.8201 8.59155 16.4905 8.40321 16.2268L7.16961 14.4753L7.24494 14.2399C7.58395 13.1569 7.71578 12.4977 7.79112 11.4619L7.99829 8.55207C8.10187 7.12071 7.27319 5.95302 5.77591 5.95302C4.68356 5.95302 3.89254 6.54628 2.87552 7.53505L1.33116 9.07C0.803815 9.58792 0.634312 10.0117 0.587228 10.6709L0.389474 13.0627C0.34239 13.7125 0.709647 14.1363 1.29349 14.1739C1.84909 14.2116 2.26343 13.882 2.32934 13.1852L2.54593 10.5673L3.45937 9.75743C3.62887 9.60676 3.87371 9.69151 3.85487 9.94577L3.68537 12.3C3.60062 13.4394 4.09971 14.2681 4.66472 14.9744L6.67993 17.5075C6.87768 17.7523 6.90593 17.8465 7.0001 18.0254L9.14714 22.3854C9.4014 22.8939 9.77807 23.0634 10.1736 23.0634ZM10.6162 11.9421H12.8951C13.5542 11.9421 13.9686 11.556 13.9686 10.9722C13.9686 10.3884 13.5448 10.0023 12.8856 10.0023H10.5032L8.8458 8.20365L8.66688 10.7933L9.37315 11.4995C9.71215 11.8386 10.0323 11.9421 10.6162 11.9421ZM1.03924 23.0634C1.36883 23.0634 1.66075 22.9128 1.86792 22.6679L4.90014 19.0613C5.2109 18.6846 5.24857 18.5904 5.3804 18.2232C5.45574 17.9783 5.52166 17.7429 5.57816 17.5169L3.84546 15.351L3.33695 17.7147L0.464809 21.1236C0.201137 21.4249 0.0222168 21.6886 0.0222168 22.0653C0.0222168 22.6491 0.464809 23.0634 1.03924 23.0634Z" fill="#FAFAFA"/>
</svg>
