<svg width="24" height="24" viewBox="0 0 24 24" fill="none" xmlns="http://www.w3.org/2000/svg">
<path d="M12 0L0 4.44452V19.5498L12 23.9943L24 19.5498V4.44452L12 0ZM12 8.19433L8.96887 7.07172L17.332 3.9743L20.3632 5.09692L12 8.19433ZM14.6327 2.97455L6.26953 6.07196L3.63684 5.09692L12 1.99951L14.6327 2.97455ZM1.875 6.44385L5.4375 7.7633V12.3926L7.31232 13.0869C7.31232 13.0862 7.3125 13.0854 7.3125 13.0847V8.45782L11.0625 9.84668V21.6475L1.875 18.2448V6.44385ZM12.9375 21.6475V9.84668L22.125 6.44385V18.2448L12.9375 21.6475Z" fill="white"/>
</svg>
