<svg width="29" height="33" viewBox="0 0 29 33" fill="none" xmlns="http://www.w3.org/2000/svg">
<path d="M28.8121 31.9153L26.304 8.03069C26.2514 7.53068 25.8299 7.15101 25.3271 7.15101H20.613V6.07621C20.613 2.72591 17.8871 0 14.5368 0C11.1862 0 8.46032 2.72591 8.46032 6.07621V7.15101H3.74619C3.2434 7.15101 2.82194 7.53068 2.76932 8.03069L0.261192 31.9153C0.232238 32.192 0.32212 32.4682 0.508178 32.6752C0.694487 32.8819 0.959852 32.9999 1.23806 32.9999H27.835C28.1134 32.9999 28.3788 32.8819 28.5649 32.6752C28.7514 32.4682 28.8411 32.192 28.8121 31.9153ZM10.4246 6.07621C10.4246 3.80902 12.2693 1.96431 14.5368 1.96431C16.804 1.96431 18.6487 3.80902 18.6487 6.07621V7.15101H10.4246V6.07621ZM2.32872 31.0356L4.63065 9.11532H8.46032V11.2798C8.46032 11.8221 8.90016 12.2619 9.44247 12.2619C9.98478 12.2619 10.4246 11.8221 10.4246 11.2798V9.11532H18.6487V11.2798C18.6487 11.8221 19.0885 12.2619 19.6308 12.2619C20.1731 12.2619 20.613 11.8221 20.613 11.2798V9.11532H24.4426L26.7446 31.0356H2.32872Z" fill="#8168F0"/>
</svg>
