<svg width="38" height="40" viewBox="0 0 38 40" fill="none" xmlns="http://www.w3.org/2000/svg">
<path d="M37.3889 26.6734L26.4788 19.9998L37.3885 13.3261C37.5762 13.2111 37.7107 13.0264 37.7622 12.8121C37.8137 12.5979 37.778 12.372 37.6634 12.1843L34.4575 6.94396C34.2188 6.55283 33.7068 6.42951 33.3157 6.66867L22.9013 13.0396V0.830418C22.9013 0.372027 22.5293 0 22.0709 0H15.9286C15.4702 0 15.0982 0.372027 15.0982 0.830418V13.0396L4.68341 6.66909C4.29145 6.42993 3.78073 6.55283 3.54157 6.94437L0.335707 12.1847C0.221109 12.3724 0.1854 12.5983 0.236887 12.8125C0.288373 13.0268 0.422902 13.2115 0.610579 13.3266L11.5207 19.9998L0.610579 26.6734C0.422902 26.788 0.288373 26.9732 0.236887 27.1871C0.1854 27.4017 0.221109 27.6276 0.335707 27.8153L3.54157 33.0552C3.78073 33.4463 4.29145 33.5701 4.68341 33.3309L15.0982 26.9599V39.1692C15.0982 39.6276 15.4702 39.9996 15.9286 39.9996H22.0709C22.5293 39.9996 22.9013 39.6276 22.9013 39.1692V26.9604L33.3161 33.3305C33.7072 33.5697 34.2192 33.4463 34.458 33.0556L37.6638 27.8153C37.7784 27.6276 37.8141 27.4017 37.7626 27.1875C37.7116 26.9728 37.5766 26.7885 37.3889 26.6734Z" fill="url(#paint0_radial_2_605)"/>
<defs>
<radialGradient id="paint0_radial_2_605" cx="0" cy="0" r="1" gradientUnits="userSpaceOnUse" gradientTransform="translate(18.9998 19.9998) rotate(89.9994) scale(21.5002 20.1952)">
<stop stop-color="#84CC9D"/>
<stop offset="0.9999" stop-color="#8866EC"/>
<stop offset="1" stop-color="#A585FF"/>
</radialGradient>
</defs>
</svg>
