<svg width="17" height="18" viewBox="0 0 17 18" fill="none" xmlns="http://www.w3.org/2000/svg">
<path d="M8.28683 8.84242C10.5657 8.84242 12.4114 6.82722 12.4114 4.36C12.4114 1.93045 10.5657 0 8.28683 0C6.01737 0 4.15283 1.95871 4.16225 4.37884C4.17167 6.83663 6.00795 8.84242 8.28683 8.84242ZM8.28683 7.19448C6.9873 7.19448 5.88553 5.96087 5.88553 4.37884C5.87612 2.83447 6.97789 1.64795 8.28683 1.64795C9.60519 1.64795 10.6881 2.81564 10.6881 4.36C10.6881 5.94203 9.59577 7.19448 8.28683 7.19448ZM2.41071 17.6001H14.1535C15.7826 17.6001 16.5642 17.0822 16.5642 15.971C16.5642 13.3813 13.3343 9.93478 8.28683 9.93478C3.2394 9.93478 0 13.3813 0 15.971C0 17.0822 0.781599 17.6001 2.41071 17.6001ZM2.11879 15.9521C1.89279 15.9521 1.80804 15.8768 1.80804 15.7073C1.80804 14.2665 4.134 11.5827 8.28683 11.5827C12.4302 11.5827 14.7562 14.2665 14.7562 15.7073C14.7562 15.8768 14.6715 15.9521 14.4455 15.9521H2.11879Z" fill="#8168F0"/>
</svg>
