<svg width="19" height="20" viewBox="0 0 19 20" fill="none" xmlns="http://www.w3.org/2000/svg">
<path d="M14.0672 19.3606C15.7152 19.3606 16.8358 18.8897 17.8528 17.788C17.9187 17.7126 17.9846 17.6279 18.0505 17.5526C18.6061 16.931 18.8792 16.2813 18.8792 15.6786C18.8792 14.9723 18.5025 14.332 17.6644 13.7576L14.8582 11.7989C13.973 11.1868 12.9466 11.1397 12.1556 11.9307L11.4587 12.6275C11.2139 12.8724 10.9785 12.8912 10.696 12.6935C10.1875 12.3544 9.22695 11.5069 8.56777 10.8478C7.89917 10.1792 7.22116 9.42581 6.8539 8.85138C6.65615 8.55946 6.67498 8.33345 6.91982 8.08861L7.61666 7.39177C8.40768 6.60075 8.3606 5.57432 7.73908 4.68913L5.74271 1.83582C5.18712 1.02597 4.51852 0.649301 3.81226 0.639884C3.20958 0.630467 2.56923 0.903556 1.94772 1.44973C1.87238 1.51565 1.79705 1.58157 1.72171 1.64749C0.601109 2.67392 0.12085 3.7757 0.12085 5.48956C0.12085 8.26754 1.73113 11.5446 4.86694 14.6616C7.98392 17.7597 11.2233 19.3606 14.0672 19.3606ZM14.0672 17.788C11.6659 17.8256 8.68077 16.1212 6.06288 13.5221C3.42617 10.9231 1.67463 7.82494 1.7123 5.42365C1.73113 4.41604 2.08897 3.53086 2.79524 2.90935C2.87057 2.85284 2.92707 2.80576 3.00241 2.74926C3.26608 2.52325 3.54858 2.40084 3.81226 2.40084C4.08534 2.40084 4.33018 2.51384 4.51852 2.79634L6.27947 5.44248C6.50548 5.76265 6.51489 6.12991 6.1853 6.45008L5.43195 7.19401C4.71627 7.89086 4.78219 8.71013 5.2342 9.35047C5.74271 10.0567 6.69381 11.1397 7.49425 11.9307C8.35118 12.7782 9.51887 13.8235 10.1969 14.3132C10.8372 14.7652 11.6565 14.8311 12.3533 14.1154L13.0973 13.3621C13.408 13.0325 13.7753 13.0419 14.1049 13.2585L16.7039 14.9912C16.9959 15.1795 17.0994 15.4149 17.0994 15.688C17.0994 15.9517 16.977 16.2342 16.751 16.5073C16.6945 16.5732 16.6474 16.6297 16.5909 16.705C15.9694 17.4207 15.0842 17.7786 14.0672 17.788Z" fill="#21A038"/>
</svg>
