<svg width="24" height="24" viewBox="0 0 24 24" fill="none" xmlns="http://www.w3.org/2000/svg">
<path d="M20.7614 3H3.23859C1.45281 3 0 4.54462 0 6.44326V16.5567C0 18.4554 1.45281 20 3.23859 20H20.7614C22.5472 20 24 18.4554 24 16.5567V6.44326C24 4.54462 22.5472 3 20.7614 3ZM3.23859 5.09589H20.7614C21.4602 5.09589 22.0287 5.70031 22.0287 6.44326V7.25831H1.97131V6.44326C1.97131 5.70031 2.5398 5.09589 3.23859 5.09589ZM20.7614 17.9041H3.23859C2.5398 17.9041 1.97131 17.2997 1.97131 16.5567V9.3542H22.0287V16.5567C22.0287 17.2997 21.4602 17.9041 20.7614 17.9041Z" fill="white"/>
<path d="M5.99188 12.5164H4.48993C3.94557 12.5164 3.50427 12.9577 3.50427 13.502C3.50427 14.0464 3.94557 14.4877 4.48993 14.4877H5.99188C6.53625 14.4877 6.97754 14.0464 6.97754 13.502C6.97754 12.9577 6.53625 12.5164 5.99188 12.5164Z" fill="white"/>
</svg>
