<svg width="26" height="26" viewBox="0 0 26 26" fill="none" xmlns="http://www.w3.org/2000/svg">
<path d="M13 26C9.52758 26 6.263 24.6477 3.80758 22.1924C1.35225 19.737 0 16.4724 0 13C0 9.52758 1.35225 6.263 3.80758 3.80758C6.263 1.35225 9.52758 0 13 0C16.4724 0 19.737 1.35225 22.1924 3.80758C24.6477 6.263 26 9.52758 26 13C26 16.4724 24.6477 19.737 22.1924 22.1924C19.737 24.6477 16.4724 26 13 26ZM13 2.03125C6.9518 2.03125 2.03125 6.9518 2.03125 13C2.03125 19.0482 6.9518 23.9688 13 23.9688C19.0482 23.9688 23.9688 19.0482 23.9688 13C23.9688 6.9518 19.0482 2.03125 13 2.03125ZM17.7601 15.2439C17.2869 14.9427 16.6591 15.0822 16.358 15.5555C16.3455 15.5752 15.0815 17.5226 12.9492 17.5226C10.8169 17.5226 9.55297 15.5752 9.54043 15.5555C9.23929 15.0823 8.61159 14.9428 8.13836 15.2439C7.66512 15.5451 7.52563 16.1728 7.82676 16.646C7.90232 16.7647 9.7144 19.5539 12.9492 19.5539C16.184 19.5539 17.9961 16.7648 18.0717 16.646C18.3728 16.1728 18.2333 15.5451 17.7601 15.2439ZM8.53125 8.37891C9.23239 8.37891 9.80078 8.9473 9.80078 9.64844C9.80078 10.3496 9.23239 10.918 8.53125 10.918C7.83011 10.918 7.26172 10.3496 7.26172 9.64844C7.26172 8.9473 7.83011 8.37891 8.53125 8.37891ZM16.1484 9.64844C16.1484 10.3496 16.7168 10.918 17.418 10.918C18.1191 10.918 18.6875 10.3496 18.6875 9.64844C18.6875 8.9473 18.1191 8.37891 17.418 8.37891C16.7168 8.37891 16.1484 8.9473 16.1484 9.64844Z" fill="white"/>
</svg>
