<svg width="23" height="23" viewBox="0 0 23 23" fill="none" xmlns="http://www.w3.org/2000/svg">
<g clip-path="url(#clip0_2_455)">
<path d="M22.0413 23.0001C21.796 23.0001 21.5506 22.9062 21.3637 22.7193L14.6746 16.0302C14.2999 15.6554 14.2999 15.0498 14.6746 14.6751C15.0493 14.3004 15.655 14.3004 16.0297 14.6751L22.7188 21.3642C23.0935 21.7389 23.0935 22.3446 22.7188 22.7193C22.532 22.9062 22.2866 23.0001 22.0413 23.0001Z" fill="white"/>
<path d="M9.34375 18.6875C4.19175 18.6875 0 14.4957 0 9.34375C0 4.19175 4.19175 0 9.34375 0C14.4957 0 18.6875 4.19175 18.6875 9.34375C18.6875 14.4957 14.4957 18.6875 9.34375 18.6875ZM9.34375 1.91667C5.24879 1.91667 1.91667 5.24879 1.91667 9.34375C1.91667 13.4387 5.24879 16.7708 9.34375 16.7708C13.4387 16.7708 16.7708 13.4387 16.7708 9.34375C16.7708 5.24879 13.4387 1.91667 9.34375 1.91667Z" fill="white"/>
</g>
<defs>
<clipPath id="clip0_2_455">
<rect width="23" height="23" fill="white"/>
</clipPath>
</defs>
</svg>
